<?xml version="1.0"?>
<svg xmlns="http://www.w3.org/2000/svg" xmlns:xlink="http://www.w3.org/1999/xlink" xmlns:svgjs="http://svgjs.com/svgjs" version="1.1" width="512" height="512" x="0" y="0" viewBox="0 0 512 512" style="enable-background:new 0 0 512 512" xml:space="preserve" class=""><g><g xmlns="http://www.w3.org/2000/svg"><path d="m485.206 257.944-11.973-5.87c.087-8.458-.044-16.141 0-23.374 0-37.214-9.547-73.769-27.645-106.094 4.23-6.1 4.44-14.239.149-20.659-15.905-23.802-35.861-44.205-59.313-60.643-15.36-10.766-31.994-19.61-49.439-26.288-3.869-1.481-8.205.455-9.686 4.323-1.481 3.869.455 8.205 4.323 9.686 16.297 6.238 31.839 14.502 46.192 24.563 21.925 15.368 40.582 34.443 55.451 56.694.938 1.403.718 3.251-.521 4.394-1.137.9-26.184 24.463-27.699 25.38-.762.381-1.497.372-1.93.314-.611-.083-1.752-.408-2.527-1.654-9.847-15.827-22.141-29.879-36.541-41.768-30.504-25.184-69.07-39.054-108.594-39.054-41.561 0-81.641 15.162-112.859 42.694-12.288 10.836-22.944 23.342-31.674 37.168-.721 1.141-1.813 1.422-2.401 1.487-.615.07-1.797.033-2.813-.984l-26.041-26.042c-1.16-1.161-1.323-2.99-.387-4.351 11.041-16.045 24.22-30.529 39.171-43.05 38.364-32.124 87.02-49.816 137.005-49.816 13.748 0 27.505 1.32 40.89 3.924 4.065.791 8.003-1.864 8.794-5.93s-1.864-8.003-5.93-8.794c-14.326-2.787-29.047-4.2-43.754-4.2-53.5 0-105.576 18.936-146.635 53.318-15.991 13.392-30.088 28.885-41.898 46.047-4.523 6.574-4.243 15.195.404 21.43-7.448 12.776-13.6 26.242-18.306 40.113-1.331 3.922.771 8.181 4.693 9.512.799.271 1.611.399 2.41.399 3.125 0 6.042-1.969 7.102-5.092 3.94-11.613 8.982-22.919 15-33.737l16.016 16.017c-12.72 25.455-19.425 53.795-19.425 82.379v156.144l-41.417-20.306c-4.879-2.392-8.032-7.448-8.032-12.882v-69.048c0-5.434 3.153-10.49 8.032-12.882 2.532-1.354 7.641-3.582 11.869-5.822 4.57-2.451 7.409-7.197 7.409-12.386v-22.728c-.054-9.651.612-19.392 1.979-28.951.587-4.101-2.262-7.9-6.362-8.486-4.095-.588-7.899 2.262-8.486 6.362-1.472 10.288-2.188 20.771-2.131 31.117v22.119c-1.876 1.036-8.108 3.852-11.154 5.442-9.824 4.947-16.155 15.202-16.155 26.215v69.048c0 11.114 6.449 21.458 16.428 26.351l50.028 24.527c5.258 15.956 20.296 27.51 37.991 27.51 22.055 0 39.998-17.942 39.998-39.997v-134.905c0-22.055-17.943-39.998-39.998-39.998-9.418 0-18.08 3.28-24.922 8.747.708-24.792 6.874-49.248 17.985-71.317.765.009 1.534-.023 2.307-.11 5.555-.62 10.447-3.676 13.421-8.387 7.967-12.619 17.695-24.034 28.912-33.926 28.476-25.113 65.033-38.944 102.937-38.944 36.047 0 71.221 12.65 99.044 35.621 13.145 10.853 24.367 23.679 33.354 38.124 2.937 4.72 7.767 7.853 13.252 8.595.828.112 1.655.167 2.478.167.362 0 .721-.029 1.08-.05 10.767 21.777 16.751 45.85 17.448 70.227-6.842-5.468-15.504-8.748-24.923-8.748-22.055 0-39.998 17.943-39.998 39.998v22.493c0 4.142 3.358 7.5 7.5 7.5s7.5-3.358 7.5-7.5v-22.493c0-13.784 11.214-24.998 24.998-24.998s24.998 11.214 24.998 24.998v134.905c0 13.783-11.214 24.997-24.998 24.997s-24.998-11.214-24.998-24.997v-74.596c0-4.142-3.358-7.5-7.5-7.5s-7.5 3.358-7.5 7.5v74.596c0 22.055 17.943 39.997 39.998 39.997 9.453 0 18.144-3.303 24.998-8.807v17.866c0 5.396-4.391 9.787-9.787 9.787h-89.861c-2.337-6.919-8.875-11.92-16.572-11.92h-56.711c-9.649 0-17.5 7.851-17.5 17.5v38.345c0 9.649 7.851 17.5 17.5 17.5h56.711c7.67 0 14.189-4.968 16.546-11.85h48.693c4.142 0 7.5-3.358 7.5-7.5s-3.358-7.5-7.5-7.5h-47.739v-19.574h88.933c13.667 0 24.787-11.12 24.787-24.787v-37.554l19.574-9.596v66.598c0 13.737-11.176 24.913-24.913 24.913h-23.228c-4.142 0-7.5 3.358-7.5 7.5s3.358 7.5 7.5 7.5h23.228c22.008 0 39.913-17.905 39.913-39.913v-73.952l13.447-6.592c9.979-4.893 16.428-15.236 16.428-26.351v-69.048c0-11.114-6.449-21.457-16.428-26.35zm-370.393-26.113c13.784 0 24.998 11.214 24.998 24.998v134.905c0 13.783-11.214 24.997-24.998 24.997s-24.998-11.214-24.998-24.997v-134.906c0-13.784 11.214-24.997 24.998-24.997zm131.94 262.669v-38.343c0-1.378 1.122-2.5 2.5-2.5h20.855v43.343h-20.855c-1.378 0-2.5-1.122-2.5-2.5zm61.711 0c0 1.378-1.122 2.5-2.5 2.5h-20.855v-43.343h20.855c1.378 0 2.5 1.122 2.5 2.5zm178.17-141.157c0 5.434-3.153 10.49-8.032 12.882l-41.417 20.306c0-19.128 0-140.567 0-156.144 0-28.341-6.597-56.471-19.114-81.76l16.385-15.12c15.556 29.156 23.753 61.819 23.777 95.053-.054 6.228.096 14.581-.01 24.648-.047 4.965 2.8 9.585 7.255 11.77l13.125 6.435c4.879 2.392 8.032 7.448 8.032 12.882v69.048z" fill="#a72c2c" data-original="#000000" style="" class=""/><path d="m323.451 231.566c-.541-6.491-4.325-11.749-9.641-13.396-2.505-.776-8.993-1.767-15.141 5.778-5.717 7.015-34.445 58.917-40.146 69.25-1.282 2.323-1.241 5.151.108 7.436s3.805 3.687 6.458 3.687h43.307c-.056 7.958-.117 15.636-.175 22.45-.036 4.142 3.293 7.528 7.435 7.564h.066c4.111 0 7.463-3.315 7.498-7.436.023-2.663.097-11.396.177-22.579h5.554c4.142 0 7.5-3.358 7.5-7.5s-3.358-7.5-7.5-7.5h-5.454c.156-25.174.259-54.085-.046-57.754zm-14.954 57.755h-30.672c11.262-20.225 25.356-45.074 30.768-53.441.118 8.231.042 30.502-.096 53.441z" fill="#a72c2c" data-original="#000000" style="" class=""/><path d="m246.413 327.502c-.052-4.142-3.412-7.43-7.594-7.405-13.662.172-28.304.267-38.328.224 5.63-7.404 14.839-19.691 28.941-39.841 6.807-10.104 11.995-19.654 12.67-30.313 0-18.484-15.038-33.522-33.522-33.522-15.983 0-29.816 11.369-32.893 27.033-.798 4.064 1.85 8.006 5.914 8.805 4.065.796 8.007-1.85 8.805-5.914 1.698-8.647 9.342-14.924 18.174-14.924 10.066 0 18.283 8.073 18.517 18.084-.572 6.759-4.274 13.648-9.955 22.149-16.155 23.082-25.8 35.712-30.982 42.497-6.162 8.068-8.021 10.503-6.665 14.913.767 2.495 2.671 4.414 5.223 5.264 5.218 1.4 37.391.62 54.288.543 4.143-.052 7.459-3.451 7.407-7.593z" fill="#a72c2c" data-original="#000000" style="" class=""/></g></g></svg>
